# xmcd
#
# Track frame offsets: 
#        150
#        5475
#        23250
#        50850
#        79725
#        93900
#        114225
#        136500
#
# Disc length: 2127 seconds
#
# Revision: 0
# Processed by: cddbd v1.5.2PL0 Copyright (c) Steve Scherf et al.
# Submitted via: ExactAudioCopy v0.95b4
#
DISCID=4f084d08
DTITLE=B.B. King - Sweet Sixteen [DTS 5.1]
DYEAR=2002
DGENRE=
TTITLE0=Intro
TTITLE1=To know you is to love you
TTITLE2=It's My Own Fault
TTITLE3=Why I sing the blues
TTITLE4=You've Done Lost Your Good Thing Now
TTITLE5=The thrill is gone
TTITLE6=Sweet Sixteen
TTITLE7=Payin' The Cost To Be The Boss (Live)
EXTD=
EXTT0=
EXTT1=
EXTT2=
EXTT3=
EXTT4=
EXTT5=
EXTT6=
EXTT7=
PLAYORDER=
